<?xml version="1.0" standalone="no"?>
<!DOCTYPE svg PUBLIC "-//W3C//DTD SVG 20010904//EN"
 "http://www.w3.org/TR/2001/REC-SVG-20010904/DTD/svg10.dtd">
<svg version="1.0" xmlns="http://www.w3.org/2000/svg"
 width="1158.000000pt" height="627.000000pt" viewBox="0 0 1158.000000 627.000000"
 preserveAspectRatio="xMidYMid meet">

<g transform="translate(0.000000,627.000000) scale(0.100000,-0.100000)"
fill="#000000" stroke="none">
<path d="M0 6150 l0 -120 5790 0 5790 0 0 120 0 120 -5790 0 -5790 0 0 -120z"/>
<path d="M10175 5890 c-42 -47 -8 -120 55 -120 31 0 70 39 70 70 0 10 -9 29
-21 44 -26 33 -77 36 -104 6z m63 -16 c16 -5 22 -14 22 -35 0 -31 -16 -40 -22
-12 -3 16 -4 16 -20 0 -23 -23 -28 -21 -28 11 0 41 7 47 48 36z"/>
<path d="M9820 5855 l0 -45 40 0 40 0 0 45 0 45 -40 0 -40 0 0 -45z"/>
<path d="M589 5863 l-24 -26 32 18 c31 18 33 18 55 -1 22 -18 22 -17 -1 9 -14
15 -27 27 -31 27 -4 0 -17 -12 -31 -27z"/>
<path d="M158 5873 c12 -2 30 -2 40 0 9 3 -1 5 -23 4 -22 0 -30 -2 -17 -4z"/>
<path d="M8830 5863 c0 -9 -3 -13 -7 -10 -3 4 -12 2 -20 -4 -9 -8 -17 -8 -26
-1 -17 14 -42 -2 -34 -22 4 -9 14 -16 24 -15 16 0 16 1 -2 9 -19 8 -19 9 2 9
12 1 25 -3 28 -9 3 -5 15 -10 26 -10 15 0 19 7 19 35 0 19 -2 35 -5 35 -3 0
-5 -7 -5 -17z m0 -34 c0 -5 -7 -9 -15 -9 -15 0 -20 12 -9 23 8 8 24 -1 24 -14z"/>
<path d="M9270 5865 c0 -8 5 -15 10 -15 6 0 10 7 10 15 0 8 -4 15 -10 15 -5 0
-10 -7 -10 -15z"/>
<path d="M8460 5840 c0 -22 5 -30 18 -30 26 0 30 6 24 35 -7 38 -42 34 -42 -5z"/>
<path d="M8654 5855 c-10 -24 4 -45 28 -44 l23 2 -22 4 c-14 3 -23 12 -23 23
0 11 9 20 23 23 l22 4 -23 2 c-12 0 -25 -6 -28 -14z"/>
<path d="M8002 5840 c0 -14 2 -19 5 -12 2 6 2 18 0 25 -3 6 -5 1 -5 -13z"/>
<path d="M8573 5823 c2 -32 5 -39 13 -30 7 7 15 23 19 37 4 17 3 21 -3 11 -8
-11 -12 -10 -20 5 -8 15 -10 10 -9 -23z"/>
<path d="M8712 5835 c0 -16 2 -22 5 -12 2 9 2 23 0 30 -3 6 -5 -1 -5 -18z"/>
<path d="M8880 5835 c0 -33 15 -33 16 0 1 14 -2 25 -7 25 -5 0 -9 -11 -9 -25z"/>
<path d="M7972 5836 c7 -8 15 -12 17 -11 5 6 -10 25 -20 25 -5 0 -4 -6 3 -14z"/>
<path d="M8151 5834 c0 -11 3 -14 6 -6 3 7 2 16 -1 19 -3 4 -6 -2 -5 -13z"/>
<path d="M8521 5833 c-1 -17 5 -23 19 -23 14 0 20 6 19 23 -1 16 -2 18 -6 5
-2 -10 -8 -18 -13 -18 -5 0 -11 8 -13 18 -4 13 -5 11 -6 -5z"/>
<path d="M8850 5830 c0 -11 5 -20 10 -20 6 0 10 9 10 20 0 11 -4 20 -10 20 -5
0 -10 -9 -10 -20z"/>
<path d="M9275 5830 c3 -5 8 -10 11 -10 2 0 4 5 4 10 0 6 -5 10 -11 10 -5 0
-7 -4 -4 -10z"/>
<path d="M9560 5790 c0 -5 5 -10 10 -10 6 0 10 5 10 10 0 6 -4 10 -10 10 -5 0
-10 -4 -10 -10z"/>
<path d="M147 5523 c-12 -11 -8 -23 8 -23 8 0 15 7 15 15 0 16 -12 20 -23 8z"/>
<path d="M3210 5420 c0 -40 4 -70 10 -70 6 0 10 30 10 70 0 40 -4 70 -10 70
-6 0 -10 -30 -10 -70z"/>
<path d="M3350 5422 l0 -69 35 -1 c44 -2 63 27 46 65 -9 20 -16 24 -36 19 -22
-6 -25 -3 -25 24 0 16 -4 30 -10 30 -6 0 -10 -29 -10 -68z m65 -27 c0 -13 -8
-21 -22 -23 -17 -3 -23 2 -23 16 0 10 3 22 7 26 13 13 38 1 38 -19z"/>
<path d="M3460 5420 c0 -40 4 -70 10 -70 6 0 10 30 10 70 0 40 -4 70 -10 70
-6 0 -10 -30 -10 -70z"/>
<path d="M190 5465 c0 -8 7 -15 15 -15 8 0 15 7 15 15 0 8 -7 15 -15 15 -8 0
-15 -7 -15 -15z"/>
<path d="M2889 5454 c-31 -79 -37 -104 -28 -104 5 0 12 7 15 15 8 21 51 19 63
-2 5 -10 13 -15 16 -11 9 8 -23 97 -41 117 -11 12 -15 10 -25 -15z m31 -35 c0
-11 -7 -19 -16 -19 -11 0 -14 5 -10 16 3 9 6 20 6 25 0 6 5 7 10 4 6 -3 10
-15 10 -26z"/>
<path d="M3160 5470 c0 -5 5 -10 10 -10 6 0 10 5 10 10 0 6 -4 10 -10 10 -5 0
-10 -4 -10 -10z"/>
<path d="M3685 5468 c-2 -7 -13 -37 -24 -65 -10 -29 -15 -53 -10 -53 5 0 12 7
15 15 4 9 19 15 35 15 19 0 29 -5 29 -15 0 -8 6 -15 14 -15 12 0 9 13 -10 62
-13 34 -24 63 -24 65 0 9 -21 1 -25 -9z m28 -48 c4 -15 0 -20 -13 -20 -13 0
-17 5 -13 20 3 11 9 20 13 20 4 0 10 -9 13 -20z"/>
<path d="M3780 5416 c0 -37 4 -66 10 -66 6 0 10 26 10 59 0 33 -4 63 -10 66
-6 4 -10 -18 -10 -59z"/>
<path d="M2976 5418 c24 -80 36 -86 59 -32 17 42 19 54 6 54 -5 0 -12 -13 -16
-30 -4 -16 -10 -30 -15 -30 -5 0 -11 14 -15 30 -4 17 -11 30 -16 30 -6 0 -7
-10 -3 -22z"/>
<path d="M3075 5430 c-4 -6 5 -10 19 -10 14 0 26 -4 26 -10 0 -5 -8 -10 -19
-10 -22 0 -45 -25 -36 -39 3 -6 21 -10 40 -9 32 1 35 4 35 33 0 17 -5 36 -12
43 -15 15 -45 16 -53 2z m45 -49 c0 -12 -28 -22 -34 -12 -3 5 -3 11 1 15 9 9
33 7 33 -3z"/>
<path d="M3160 5395 c0 -25 5 -45 10 -45 6 0 10 20 10 45 0 25 -4 45 -10 45
-5 0 -10 -20 -10 -45z"/>
<path d="M3265 5431 c-3 -7 2 -11 14 -11 28 0 27 -18 -1 -22 -15 -2 -23 -10
-23 -23 0 -16 7 -20 33 -20 32 -1 33 0 30 40 -2 32 -7 41 -25 43 -11 2 -24 -2
-28 -7z m35 -56 c-7 -8 -16 -12 -21 -9 -13 8 -1 24 18 24 13 0 13 -3 3 -15z"/>
<path d="M3516 5424 c-19 -18 -21 -45 -4 -62 15 -15 58 -16 58 -1 0 5 -4 8 -9
5 -12 -8 -41 3 -41 15 0 5 14 9 30 9 31 0 39 17 18 38 -16 16 -33 15 -52 -4z
m44 -14 c0 -5 -9 -10 -20 -10 -11 0 -20 5 -20 10 0 6 9 10 20 10 11 0 20 -4
20 -10z"/>
<path d="M6981 5034 c-26 -21 -31 -33 -31 -68 0 -75 56 -119 124 -96 72 23 91
107 37 161 -39 38 -87 39 -130 3z m138 -93 c-11 -36 -17 -42 -51 -52 -44 -11
-68 0 -68 31 0 23 26 44 45 37 19 -8 45 19 45 46 l0 21 21 -20 c19 -19 20 -25
8 -63z"/>
<path d="M3043 4960 c0 -41 2 -61 4 -45 10 64 47 66 56 2 3 -20 4 -15 3 13 -1
42 -3 45 -28 43 -23 -1 -27 3 -31 30 -2 18 -4 -2 -4 -43z"/>
<path d="M6110 4999 c0 -26 -3 -29 -20 -24 -26 8 -50 -11 -50 -40 0 -29 18
-44 52 -42 28 2 28 3 28 70 0 37 -2 67 -5 67 -3 0 -5 -14 -5 -31z m-3 -73 c-4
-9 -16 -16 -27 -16 -15 0 -20 7 -20 24 0 13 6 26 13 29 18 7 41 -19 34 -37z"/>
<path d="M2952 5008 c-23 -12 -36 -43 -30 -74 5 -26 50 -49 74 -39 16 7 14 9
-15 14 -63 11 -56 91 7 91 21 0 24 2 12 10 -18 12 -19 12 -48 -2z"/>
<path d="M3382 5010 c-29 -12 -46 -54 -32 -80 26 -48 100 -51 100 -4 0 28 -25
43 -43 25 -8 -8 -7 -11 6 -11 9 0 17 -7 17 -15 0 -18 -41 -20 -58 -3 -29 29
-1 78 46 78 21 0 24 2 12 10 -18 11 -18 11 -48 0z"/>
<path d="M3480 4954 c0 -41 4 -63 10 -59 6 3 10 15 10 26 0 12 7 19 18 19 45
0 57 55 16 70 -50 19 -54 15 -54 -56z m55 21 c0 -11 -8 -21 -17 -23 -14 -3
-18 3 -18 23 0 20 4 26 18 23 9 -2 17 -12 17 -23z"/>
<path d="M3570 5010 c0 -5 9 -10 20 -10 17 0 20 -7 22 -57 l2 -58 3 54 c3 42
8 54 24 58 35 9 20 23 -26 23 -25 0 -45 -4 -45 -10z"/>
<path d="M3839 5009 c-11 -7 -9 -9 9 -9 28 0 30 -30 1 -37 -20 -6 -20 -6 2
-17 31 -15 28 -30 -7 -37 -25 -5 -26 -7 -10 -14 11 -5 26 -4 35 2 20 12 27 53
10 53 -10 0 -10 3 -1 12 7 7 12 18 12 25 0 18 -33 33 -51 22z"/>
<path d="M3977 5013 c-4 -3 -7 -19 -7 -35 0 -23 4 -28 25 -28 18 0 25 -5 25
-20 0 -15 -7 -20 -25 -20 -14 0 -25 -4 -25 -10 0 -13 26 -13 51 0 27 15 24 48
-6 62 -30 13 -33 38 -5 38 11 0 20 5 20 10 0 11 -43 14 -53 3z"/>
<path d="M4150 4995 c0 -26 15 -34 23 -12 4 10 6 10 6 0 2 -26 21 -12 21 15 0
19 -3 23 -9 13 -6 -9 -11 -10 -15 -2 -12 19 -26 12 -26 -14z"/>
<path d="M4210 4995 c0 -17 5 -25 18 -25 13 0 14 2 3 9 -11 7 -11 9 0 14 11 4
11 6 1 6 -7 1 -10 6 -7 11 3 6 1 10 -4 10 -6 0 -11 -11 -11 -25z"/>
<path d="M4250 5010 c0 -8 5 -22 10 -30 9 -13 11 -13 20 0 6 10 10 11 10 3 0
-23 18 -14 22 11 4 19 1 24 -19 24 -12 0 -23 -6 -23 -12 0 -6 -5 -4 -10 4 -9
13 -10 13 -10 0z"/>
<path d="M5240 4955 l0 -68 37 6 c86 14 86 107 1 122 l-38 7 0 -67z m68 33
c29 -29 7 -78 -35 -78 -21 0 -23 5 -23 45 0 40 2 45 23 45 13 0 28 -5 35 -12z"/>
<path d="M5798 5009 c-26 -15 -22 -35 12 -59 34 -24 31 -40 -8 -40 -19 0 -23
-3 -15 -11 7 -7 23 -9 37 -5 35 9 36 48 1 64 -33 15 -33 42 1 42 14 0 23 4 19
10 -8 13 -25 12 -47 -1z"/>
<path d="M6401 4993 c0 -25 1 -26 9 -8 12 27 12 35 0 35 -5 0 -10 -12 -9 -27z"/>
<path d="M6426 5004 c-7 -18 0 -34 15 -34 5 0 9 11 9 25 0 28 -15 34 -24 9z"/>
<path d="M6460 4997 c0 -15 4 -27 9 -27 6 0 8 10 6 21 -6 33 -15 36 -15 6z"/>
<path d="M6495 5000 c10 -33 14 -37 24 -21 7 11 9 11 13 0 7 -18 14 -11 22 21
5 17 4 21 -2 11 -8 -11 -11 -11 -16 0 -5 11 -7 11 -12 1 -5 -10 -9 -10 -21 0
-14 11 -15 10 -8 -12z"/>
<path d="M3238 4989 c-2 -7 -1 -30 2 -53 3 -28 10 -42 23 -44 9 -2 17 1 17 7
0 6 -4 11 -10 11 -5 0 -10 14 -10 30 0 17 5 30 11 30 6 0 4 7 -5 15 -18 18
-23 19 -28 4z"/>
<path d="M5878 4989 c-2 -7 -1 -30 2 -53 3 -28 10 -42 23 -44 9 -2 17 1 17 7
0 6 -4 11 -10 11 -5 0 -10 14 -10 30 0 17 5 30 11 30 6 0 4 7 -5 15 -18 18
-23 19 -28 4z"/>
<path d="M3145 4970 c-4 -6 3 -9 16 -7 12 1 24 -4 26 -10 3 -8 -4 -13 -15 -13
-11 0 -25 -6 -31 -14 -15 -18 1 -30 42 -32 24 -1 27 2 27 30 0 18 -5 37 -12
44 -15 15 -45 16 -53 2z m45 -49 c0 -11 -26 -22 -34 -14 -12 12 -5 23 14 23
11 0 20 -4 20 -9z"/>
<path d="M3725 4963 c4 -10 12 -31 17 -46 6 -15 15 -26 21 -24 12 4 40 78 32
85 -3 3 -10 -9 -16 -26 -14 -40 -26 -41 -34 -2 -4 17 -11 30 -17 30 -6 0 -7
-8 -3 -17z"/>
<path d="M5372 4930 c1 -37 2 -39 5 -12 3 18 11 36 19 39 21 8 17 19 -6 19
-17 0 -20 -6 -18 -46z"/>
<path d="M5442 4968 c-27 -27 -7 -78 29 -78 10 0 21 5 25 12 5 7 2 9 -8 5 -9
-3 -24 1 -35 8 -17 13 -16 14 15 15 25 0 32 4 32 19 0 28 -37 40 -58 19z m43
-7 c8 -14 -13 -24 -33 -16 -14 5 -14 7 -2 15 19 12 27 12 35 1z"/>
<path d="M5536 4972 c-3 -5 3 -8 12 -8 26 1 26 -18 0 -24 -14 -4 -23 -13 -23
-25 0 -16 7 -20 33 -20 32 -1 33 0 30 40 -2 32 -7 41 -25 43 -11 2 -24 -1 -27
-6z m34 -57 c-12 -15 -30 -12 -30 6 0 5 10 9 21 9 18 0 19 -2 9 -15z"/>
<path d="M5620 4933 c0 -53 18 -58 22 -5 2 25 8 37 18 37 10 0 16 -12 18 -37
4 -48 22 -50 22 -4 0 60 34 53 43 -9 3 -24 4 -21 6 13 1 46 -17 64 -43 43 -9
-8 -16 -8 -20 -2 -4 5 -20 9 -36 9 -29 -1 -30 -3 -30 -45z"/>
<path d="M5940 4941 c0 -41 9 -49 50 -46 22 1 25 7 28 43 4 49 -15 58 -20 10
-2 -22 -9 -34 -20 -36 -15 -3 -18 4 -18 32 0 20 -4 36 -10 36 -5 0 -10 -18
-10 -39z"/>
<path d="M6163 4935 c0 -27 2 -38 4 -22 2 15 2 37 0 50 -2 12 -4 0 -4 -28z"/>
<path d="M6212 4968 c-27 -27 -7 -78 29 -78 23 0 49 38 41 59 -11 31 -48 41
-70 19z m48 -13 c17 -20 5 -45 -20 -45 -11 0 -23 7 -26 15 -6 15 11 45 26 45
4 0 13 -7 20 -15z"/>
<path d="M3920 4900 c0 -5 5 -10 10 -10 6 0 10 5 10 10 0 6 -4 10 -10 10 -5 0
-10 -4 -10 -10z"/>
<path d="M188 4843 c7 -3 16 -2 19 1 4 3 -2 6 -13 5 -11 0 -14 -3 -6 -6z"/>
<path d="M7725 4690 c-4 -7 -3 -16 3 -22 14 -14 45 -2 40 15 -6 16 -34 21 -43
7z"/>
<path d="M7712 4628 c-15 -15 -15 -27 1 -61 17 -37 48 -35 66 5 10 21 11 36 4
47 -13 20 -54 26 -71 9z"/>
<path d="M170 4530 c0 -5 5 -10 10 -10 6 0 10 5 10 10 0 6 -4 10 -10 10 -5 0
-10 -4 -10 -10z"/>
<path d="M7643 4369 c12 -7 17 -22 17 -50 0 -24 4 -38 10 -34 6 3 10 24 10 45
0 21 6 41 13 43 6 3 -6 6 -28 6 -32 0 -36 -2 -22 -10z"/>
<path d="M7711 4337 c-21 -26 14 -68 42 -50 7 4 2 10 -13 14 -25 7 -25 7 3 8
21 1 28 5 25 19 -4 22 -41 28 -57 9z m39 -7 c0 -5 -7 -10 -16 -10 -8 0 -12 5
-9 10 3 6 10 10 16 10 5 0 9 -4 9 -10z"/>
<path d="M7800 4342 c17 -8 26 -42 10 -42 -5 0 -10 5 -10 10 0 6 -5 10 -11 10
-6 0 -9 -8 -7 -17 2 -12 13 -18 31 -18 25 -1 28 2 25 30 -2 24 -8 30 -28 32
-16 2 -20 0 -10 -5z"/>
<path d="M7860 4319 c0 -37 18 -47 22 -12 4 34 22 33 26 -2 5 -35 22 -31 22 5
0 17 5 30 10 30 6 0 10 -11 10 -24 0 -14 5 -28 10 -31 6 -4 10 8 10 29 l0 35
-55 -1 c-53 -1 -55 -2 -55 -29z"/>
<path d="M7994 4338 c-4 -6 1 -17 11 -25 17 -12 18 -13 1 -13 -9 0 -14 -4 -11
-10 10 -16 35 -12 42 6 4 10 -1 20 -13 27 -17 10 -17 11 1 18 19 7 19 8 -2 8
-12 1 -25 -4 -29 -11z"/>
<path d="M7819 4163 c0 -21 -2 -46 -4 -55 -2 -10 1 -18 6 -18 5 0 9 25 9 55 0
61 -10 77 -11 18z"/>
<path d="M7857 4193 c-11 -10 -8 -103 3 -103 6 0 10 25 10 55 0 56 -1 60 -13
48z"/>
<path d="M7978 4194 c-5 -4 -8 -29 -8 -56 0 -47 1 -48 30 -48 35 0 54 26 38
53 -6 11 -16 16 -28 12 -14 -5 -19 0 -22 21 -2 14 -6 22 -10 18z m50 -66 c-7
-19 -38 -22 -38 -4 0 10 9 16 21 16 12 0 19 -5 17 -12z"/>
<path d="M8345 4190 c-3 -5 -1 -10 4 -10 6 0 11 5 11 10 0 6 -2 10 -4 10 -3 0
-8 -4 -11 -10z"/>
<path d="M7645 4170 c-35 -38 13 -101 57 -74 9 6 4 10 -17 14 -24 4 -30 10
-30 30 0 20 6 26 28 28 15 2 25 8 22 13 -10 15 -41 10 -60 -11z"/>
<path d="M8293 4169 c-16 -16 0 -73 21 -77 15 -3 16 -1 5 16 -9 15 -10 24 -2
34 14 17 -9 42 -24 27z"/>
<path d="M7730 4145 c-18 -22 -1 -50 31 -50 20 0 24 5 24 30 0 23 -5 31 -21
33 -11 2 -27 -4 -34 -13z m43 -20 c1 -5 -6 -11 -15 -13 -11 -2 -18 3 -18 13 0
17 30 18 33 0z"/>
<path d="M7900 4151 c0 -6 7 -11 15 -11 8 0 15 -7 15 -15 0 -8 -5 -15 -11 -15
-5 0 -7 5 -3 11 4 7 1 10 -7 7 -26 -9 -15 -33 14 -33 25 -1 28 2 25 30 -2 22
-9 31 -25 33 -13 2 -23 -1 -23 -7z"/>
<path d="M8072 4148 c-16 -16 -15 -33 3 -48 21 -18 55 -3 55 25 0 32 -35 46
-58 23z m38 -23 c0 -8 -7 -15 -15 -15 -8 0 -15 7 -15 15 0 8 7 15 15 15 8 0
15 -7 15 -15z"/>
<path d="M8150 4124 c0 -19 5 -34 10 -34 6 0 10 10 10 21 0 12 8 27 17 34 15
11 14 13 -10 13 -24 0 -27 -4 -27 -34z"/>
<path d="M8215 4150 c-3 -5 0 -10 8 -10 8 0 17 -7 21 -15 3 -9 0 -15 -10 -15
-8 0 -12 5 -9 10 3 6 1 10 -4 10 -6 0 -11 -9 -11 -19 0 -15 7 -19 30 -19 24 1
30 6 30 23 0 35 -39 60 -55 35z"/>
<path d="M8340 4125 c0 -19 5 -35 10 -35 6 0 10 16 10 35 0 19 -4 35 -10 35
-5 0 -10 -16 -10 -35z"/>
<path d="M8390 4145 c-18 -22 -1 -50 31 -50 20 0 24 5 24 30 0 23 -5 31 -21
33 -11 2 -27 -4 -34 -13z m50 -20 c0 -8 -9 -15 -20 -15 -11 0 -20 7 -20 15 0
8 9 15 20 15 11 0 20 -7 20 -15z"/>
<path d="M8470 4124 c0 -19 5 -34 10 -34 6 0 10 11 10 25 0 16 6 25 15 25 9 0
15 -9 15 -25 0 -14 5 -25 11 -25 6 0 9 14 7 33 -3 28 -7 32 -35 34 -31 1 -33
-1 -33 -33z"/>
<path d="M8613 4153 c-20 -8 -16 -51 6 -58 28 -9 51 5 51 30 0 29 -26 41 -57
28z m37 -28 c0 -8 -7 -15 -15 -15 -8 0 -15 7 -15 15 0 8 7 15 15 15 8 0 15 -7
15 -15z"/>
<path d="M8690 4124 c0 -19 5 -34 10 -34 6 0 10 11 10 25 0 16 6 25 15 25 9 0
15 -9 15 -25 0 -14 5 -25 10 -25 12 0 13 40 2 56 -4 7 -19 12 -34 12 -25 0
-28 -4 -28 -34z"/>
<path d="M7652 3984 c-24 -17 -29 -53 -10 -72 7 -7 26 -11 43 -11 22 1 24 3 8
6 -50 10 -56 73 -7 73 14 0 22 4 19 10 -9 14 -27 12 -53 -6z"/>
<path d="M8018 3988 c-21 -18 -27 -39 -17 -65 6 -18 16 -23 41 -22 21 1 26 3
13 6 -48 11 -51 73 -4 73 11 0 17 5 14 10 -8 14 -28 13 -47 -2z"/>
<path d="M8090 3950 c0 -27 5 -50 10 -50 6 0 10 12 10 26 0 32 22 27 32 -7 5
-19 6 -17 5 11 -2 27 -6 34 -19 32 -12 -2 -18 4 -18 18 0 11 -4 20 -10 20 -5
0 -10 -22 -10 -50z"/>
<path d="M8510 3950 c0 -27 5 -50 10 -50 6 0 10 23 10 50 0 28 -4 50 -10 50
-5 0 -10 -22 -10 -50z"/>
<path d="M7908 3978 c-8 -21 3 -78 16 -78 14 0 14 66 0 80 -8 8 -13 8 -16 -2z"/>
<path d="M7736 3957 c-28 -21 -12 -59 22 -55 41 5 42 67 1 68 -3 0 -13 -6 -23
-13z m39 -27 c0 -22 -29 -18 -33 3 -3 14 1 18 15 15 10 -2 18 -10 18 -18z"/>
<path d="M7826 3957 c-28 -21 -17 -52 19 -52 24 0 31 5 33 24 2 13 -2 28 -10
32 -18 12 -21 11 -42 -4z m39 -27 c0 -22 -29 -18 -33 3 -3 14 1 18 15 15 10
-2 18 -10 18 -18z"/>
<path d="M8185 3961 c-3 -6 2 -11 12 -12 14 0 13 -2 -5 -10 -30 -12 -23 -33
12 -37 26 -3 27 -1 24 30 -3 33 -29 51 -43 29z m30 -41 c-3 -5 -10 -10 -16
-10 -5 0 -9 5 -9 10 0 6 7 10 16 10 8 0 12 -4 9 -10z"/>
<path d="M8250 3934 c0 -19 5 -34 10 -34 6 0 10 11 10 25 0 16 6 25 15 25 9 0
15 -9 15 -25 0 -14 5 -25 11 -25 6 0 9 14 7 32 -3 29 -7 33 -35 34 -31 2 -33
0 -33 -32z"/>
<path d="M8340 3934 c0 -19 5 -34 10 -34 6 0 10 11 10 25 0 16 6 25 15 25 9 0
15 -9 15 -25 0 -14 5 -25 10 -25 11 0 14 60 3 61 -5 0 -20 2 -35 4 -26 3 -28
1 -28 -31z"/>
<path d="M8442 3961 c-8 -4 -12 -19 -10 -32 2 -17 10 -25 28 -26 14 -1 18 0 8
3 -24 7 -23 24 2 24 23 0 26 10 8 28 -14 14 -19 15 -36 3z"/>
<path d="M8551 3956 c-10 -12 -8 -17 11 -27 22 -12 22 -12 3 -20 -19 -7 -19
-8 3 -8 26 -1 30 24 5 38 -17 10 -17 10 0 11 10 0 15 5 12 10 -9 14 -21 12
-34 -4z"/>
<path d="M2917 3263 c-13 -12 -8 -228 5 -241 9 -9 93 -12 315 -12 289 0 303 1
313 19 14 28 13 214 -2 229 -9 9 -93 12 -318 12 -169 0 -310 -3 -313 -7z m96
-103 c-13 -5 -23 -14 -23 -20 0 -6 10 -15 23 -20 l22 -9 -23 0 c-12 -1 -25 6
-28 14 -10 24 4 45 28 44 l23 0 -22 -9z m173 -3 c8 3 21 0 28 -6 10 -8 16 -9
21 -1 3 5 13 10 21 10 25 0 14 -64 -11 -68 -17 -3 -17 -1 -5 7 13 10 13 11 0
12 -8 1 -18 1 -22 0 -5 0 -8 6 -8 14 0 8 -4 15 -10 15 -5 0 -10 -6 -10 -13 0
-8 -7 -14 -15 -14 -10 0 -15 10 -14 31 0 17 3 26 5 19 3 -7 12 -9 20 -6z m140
4 c-17 -7 -18 -8 -3 -14 9 -3 19 -2 21 2 3 5 36 8 73 7 62 -1 68 -3 71 -23 2
-13 -1 -23 -7 -23 -6 0 -12 8 -12 18 -1 14 -2 14 -6 1 -3 -12 -19 -15 -84 -16
-50 0 -75 4 -67 9 10 8 10 11 1 15 -22 8 -14 33 10 32 20 0 20 -1 3 -8z m-178
-28 c2 -15 -2 -21 -15 -19 -10 0 -21 8 -25 16 -6 13 -7 13 -7 0 -1 -18 -53
-24 -63 -7 -13 21 12 34 60 33 40 -1 47 -4 50 -23z"/>
<path d="M3241 3134 c0 -11 3 -14 6 -6 3 7 2 16 -1 19 -3 4 -6 -2 -5 -13z"/>
<path d="M3361 3134 c0 -11 3 -14 6 -6 3 7 2 16 -1 19 -3 4 -6 -2 -5 -13z"/>
<path d="M3405 3141 c-3 -5 -1 -12 5 -16 5 -3 10 1 10 9 0 18 -6 21 -15 7z"/>
<path d="M3050 3130 c0 -5 5 -10 10 -10 6 0 10 5 10 10 0 6 -4 10 -10 10 -5 0
-10 -4 -10 -10z"/>
<path d="M5237 3263 c-4 -3 -7 -59 -7 -124 0 -97 3 -118 16 -123 9 -3 147 -6
309 -6 238 0 295 3 304 14 8 9 11 52 9 127 l-3 114 -311 3 c-171 1 -313 -1
-317 -5z m91 -100 c-10 -2 -18 -13 -18 -23 0 -10 8 -21 18 -23 13 -4 12 -5 -5
-6 -13 -1 -24 6 -28 19 -8 27 1 40 28 39 17 -1 18 -2 5 -6z m171 -8 c7 4 18 2
26 -5 9 -7 15 -8 20 0 3 5 13 10 21 10 25 0 14 -64 -11 -68 -17 -3 -17 -1 -5
7 14 10 9 13 -17 10 -4 0 -10 8 -14 18 -7 16 -8 16 -8 1 -1 -10 -9 -16 -21
-15 -15 1 -20 8 -20 32 0 21 3 26 9 16 5 -7 14 -10 20 -6z m142 6 c-9 -6 -10
-10 -2 -16 7 -4 18 -1 26 5 11 9 19 9 28 1 10 -8 17 -7 25 1 15 15 37 -4 29
-25 -4 -11 -24 -14 -74 -15 -42 0 -61 3 -48 8 18 7 19 8 3 15 -26 10 -22 35 5
35 16 0 18 -3 8 -9z m-182 -30 c0 -23 -1 -24 -9 -6 -7 17 -9 17 -9 3 -1 -10
-5 -18 -11 -18 -5 0 -10 8 -11 18 0 14 -2 14 -7 2 -4 -8 -19 -16 -34 -18 -22
-3 -28 1 -28 16 0 26 3 28 60 29 48 0 50 -1 49 -26z m339 1 c2 -12 -1 -22 -7
-22 -6 0 -11 8 -12 18 0 14 -2 14 -9 -3 -8 -18 -9 -17 -9 8 -1 22 3 28 17 25
9 -2 18 -13 20 -26z"/>
<path d="M5550 3130 c0 -5 5 -10 10 -10 6 0 10 5 10 10 0 6 -4 10 -10 10 -5 0
-10 -4 -10 -10z"/>
<path d="M5670 3136 c0 -9 5 -16 10 -16 6 0 10 4 10 9 0 6 -4 13 -10 16 -5 3
-10 -1 -10 -9z"/>
<path d="M5720 3129 c0 -5 5 -7 10 -4 6 3 10 8 10 11 0 2 -4 4 -10 4 -5 0 -10
-5 -10 -11z"/>
<path d="M5366 3141 c-4 -7 -5 -15 -2 -18 9 -9 19 4 14 18 -4 11 -6 11 -12 0z"/>
<path d="M7637 2883 c-4 -3 -7 -66 -7 -139 0 -122 2 -134 19 -144 26 -13 1209
-14 1245 0 26 9 26 10 26 134 0 68 -3 131 -6 140 -6 14 -71 16 -638 16 -348 0
-636 -3 -639 -7z m393 -113 c0 -5 -7 -10 -15 -10 -8 0 -15 -7 -15 -15 0 -8 7
-15 15 -15 8 0 15 -5 15 -11 0 -16 -31 -7 -43 13 -8 12 -7 21 2 32 15 18 41
22 41 6z m270 0 c0 -5 -7 -10 -15 -10 -8 0 -15 -7 -15 -15 0 -8 7 -15 15 -15
8 0 15 -5 15 -11 0 -16 -31 -7 -43 13 -8 12 -7 21 2 32 15 18 41 22 41 6z m60
-27 c0 23 80 21 81 -1 1 -15 2 -15 6 1 4 14 13 16 49 13 24 -2 44 1 44 5 0 5
5 9 10 9 6 0 10 -12 10 -28 0 -25 -3 -27 -40 -27 -29 0 -40 4 -40 15 0 13 -2
13 -9 1 -13 -21 -41 -22 -41 -3 0 15 -2 15 -10 2 -13 -21 -77 -22 -86 -1 -5
14 -7 13 -14 -4 -7 -16 -9 -11 -9 19 l-1 39 25 -27 c16 -17 25 -22 25 -13z
m-184 -2 c-5 -14 -4 -13 8 2 14 19 32 22 40 8 12 -19 -6 -40 -35 -39 -25 1
-29 5 -29 30 0 18 4 27 11 23 6 -4 8 -14 5 -24z m-113 7 c-6 -7 -13 -20 -16
-28 -3 -9 -6 -3 -6 13 -1 19 4 27 15 27 12 0 14 -4 7 -12z m42 2 c3 -5 11 -10
16 -10 6 0 7 5 3 11 -4 7 -1 10 7 7 8 -3 15 -14 17 -26 3 -19 -1 -21 -35 -20
-42 1 -58 15 -41 35 13 16 25 17 33 3z"/>
<path d="M2889 2643 c-31 -78 -37 -103 -28 -103 5 0 12 7 15 15 4 9 19 15 35
15 19 0 29 -5 29 -15 0 -8 5 -15 10 -15 6 0 10 4 10 9 0 20 -43 121 -52 121
-5 0 -13 -12 -19 -27z m34 -33 c4 -15 0 -20 -15 -20 -14 0 -18 5 -14 16 3 9 6
20 6 25 0 17 17 1 23 -21z"/>
<path d="M2990 2606 c0 -37 4 -66 10 -66 6 0 10 26 10 59 0 33 -4 63 -10 66
-6 4 -10 -18 -10 -59z"/>
<path d="M3121 2657 c-33 -17 -45 -39 -37 -71 13 -53 106 -62 106 -10 0 26
-21 41 -41 29 -8 -6 -7 -10 5 -17 24 -13 20 -28 -8 -28 -31 0 -50 24 -42 55 6
25 45 43 65 30 6 -3 11 -2 11 3 0 6 -7 13 -16 16 -19 7 -14 8 -43 -7z"/>
<path d="M3210 2660 c0 -5 5 -10 10 -10 6 0 10 5 10 10 0 6 -4 10 -10 10 -5 0
-10 -4 -10 -10z"/>
<path d="M3210 2585 c0 -25 5 -45 10 -45 6 0 10 20 10 45 0 25 -4 45 -10 45
-5 0 -10 -20 -10 -45z"/>
<path d="M3265 2614 c-19 -19 -19 -35 -1 -59 8 -12 20 -16 35 -12 14 3 21 1
21 -8 0 -16 -35 -29 -50 -20 -5 3 -10 1 -10 -4 0 -15 53 -14 68 1 7 7 12 35
12 63 0 51 -1 52 -30 53 -16 0 -37 -6 -45 -14z m55 -29 c0 -18 -5 -25 -19 -25
-11 0 -23 5 -26 10 -11 18 3 40 25 40 15 0 20 -7 20 -25z"/>
<path d="M3372 2618 c-18 -18 -15 -27 14 -38 29 -11 23 -34 -7 -25 -11 4 -19
2 -19 -4 0 -16 46 -13 59 3 9 11 6 18 -16 35 -27 20 -27 20 -5 21 12 0 22 5
22 10 0 14 -33 13 -48 -2z"/>
<path d="M8032 2385 c0 -16 2 -22 5 -12 2 9 2 23 0 30 -3 6 -5 -1 -5 -18z"/>
<path d="M8288 2383 c5 -23 7 -25 10 -8 2 11 9 23 16 27 6 5 3 8 -10 8 -18 0
-20 -4 -16 -27z"/>
<path d="M8180 2381 c0 -11 4 -22 9 -25 5 -3 9 6 9 19 0 14 -4 25 -9 25 -5 0
-9 -9 -9 -19z"/>
<path d="M8061 2368 c1 -17 3 -18 6 -5 5 19 19 23 26 7 3 -6 4 -5 3 2 -1 7
-10 14 -19 16 -12 3 -17 -3 -16 -20z"/>
<path d="M8113 2377 c3 -25 21 -26 25 -2 2 15 1 17 -6 6 -8 -11 -11 -11 -16 0
-3 9 -5 7 -3 -4z"/>
<path d="M8161 2374 c0 -11 3 -14 6 -6 3 7 2 16 -1 19 -3 4 -6 -2 -5 -13z"/>
<path d="M8212 2373 c2 -9 10 -18 18 -20 13 -4 13 -3 0 6 -13 9 -12 11 3 11
10 0 15 5 12 10 -10 17 -37 11 -33 -7z"/>
<path d="M8322 2373 c2 -9 10 -18 18 -20 13 -4 13 -3 0 6 -13 9 -12 11 3 11
10 0 15 5 12 10 -10 17 -37 11 -33 -7z"/>
<path d="M8381 2373 c7 -10 15 -20 16 -22 2 -2 3 5 3 17 0 14 -6 22 -16 22
-14 0 -15 -3 -3 -17z"/>
<path d="M8410 2374 c0 -13 3 -14 14 -5 11 10 15 8 19 -6 4 -17 5 -17 6 0 1
20 17 23 24 5 3 -8 6 -6 6 5 1 13 -7 17 -34 17 -26 0 -35 -4 -35 -16z"/>
<path d="M8493 2370 c1 -20 8 -25 20 -14 7 8 -3 34 -13 34 -5 0 -8 -9 -7 -20z"/>
<path d="M5520 2322 c0 -12 55 -67 114 -113 l51 -41 -45 41 c-25 23 -62 59
-82 81 -21 22 -38 36 -38 32z"/>
<path d="M5942 2318 c-17 -17 -17 -1879 0 -1896 17 -17 1379 -17 1396 0 17 17
17 1879 0 1896 -17 17 -1379 17 -1396 0z m643 -329 c11 -16 -1 -22 -30 -15
-14 4 -23 11 -20 16 8 13 42 13 50 -1z m145 -188 c0 -12 -29 -23 -41 -15 -18
10 -9 24 16 24 14 0 25 -4 25 -9z m160 -28 c2 -2 -2 -8 -10 -13 -15 -9 -40 4
-40 22 0 8 38 2 50 -9z m-80 -2 c0 -5 -9 -7 -20 -4 -11 3 -20 7 -20 9 0 2 9 4
20 4 11 0 20 -4 20 -9z m306 -115 c-9 -69 -17 -81 -45 -67 -11 7 -21 16 -21
21 0 13 40 103 53 119 10 12 13 12 15 -4 2 -10 1 -41 -2 -69z m-176 64 c0 -5
-7 -10 -16 -10 -8 0 -12 5 -9 10 3 6 10 10 16 10 5 0 9 -4 9 -10z m-10 -50 c0
-5 -7 -10 -15 -10 -8 0 -15 5 -15 10 0 6 7 10 15 10 8 0 15 -4 15 -10z m-115
-25 c29 -14 27 -15 -38 -11 -38 2 -74 9 -80 15 -17 17 82 13 118 -4z m-358
-27 c-3 -8 -6 -5 -6 6 -1 11 2 17 5 13 3 -3 4 -12 1 -19z m147 12 c30 -11 34
-40 12 -82 -13 -24 -13 -28 0 -28 8 0 14 -4 14 -10 0 -5 -6 -10 -14 -10 -9 0
-12 -7 -9 -20 3 -11 1 -20 -5 -20 -5 0 -15 -14 -21 -30 -5 -17 -20 -34 -33
-40 -17 -6 -19 -9 -5 -9 9 -1 17 -6 17 -12 0 -6 -12 -8 -30 -5 -16 3 -43 9
-60 12 -16 3 -30 10 -30 15 0 11 7 11 48 0 17 -5 32 -6 32 -1 0 5 -12 10 -27
12 -22 2 -29 9 -31 30 -2 15 2 37 8 49 11 19 17 21 61 15 61 -8 67 10 7 19
-61 9 -78 15 -78 26 0 5 12 6 28 3 23 -6 25 -5 15 8 -9 10 -10 24 -2 51 9 33
13 37 44 37 18 0 45 -4 59 -10z m178 -38 c8 -8 8 -22 2 -44 -7 -25 -17 -34
-39 -39 -17 -4 -22 -7 -12 -8 9 0 17 -5 17 -11 0 -12 -7 -12 -49 -4 -24 5 -32
13 -36 38 -4 17 -1 44 5 60 10 27 13 28 56 23 25 -2 51 -10 56 -15z m162 -25
c22 -16 15 -59 -14 -95 -16 -20 -25 -22 -52 -16 -18 4 -42 8 -52 9 -11 1 -22
7 -24 14 -3 8 4 10 24 5 27 -7 28 -6 12 9 -13 14 -15 24 -7 49 5 18 9 34 9 35
0 10 90 1 104 -10z m135 -26 c10 -7 11 -18 4 -47 -11 -49 -37 -52 -41 -6 -5
55 7 72 37 53z m-668 -72 c-5 -13 -10 -19 -10 -12 -1 15 10 45 15 40 3 -2 0
-15 -5 -28z m332 -59 c-2 -41 -18 -52 -68 -44 -48 8 -57 19 -42 53 20 48 24
50 70 37 39 -11 42 -15 40 -46z m312 -30 c-6 -9 -9 -9 -16 1 -10 17 0 34 13
21 6 -6 7 -16 3 -22z m-675 -18 c0 -13 -12 -22 -22 -16 -10 6 -1 24 13 24 5 0
9 -4 9 -8z m307 -9 c24 -3 43 -10 43 -15 0 -5 -13 -7 -30 -4 -16 3 -43 9 -60
12 -16 3 -30 10 -30 16 0 6 8 7 17 4 9 -4 36 -10 60 -13z m-317 -163 c43 -40
35 -65 -18 -55 -57 11 -60 14 -42 59 12 33 21 33 60 -4z m135 -52 c12 -15 20
-18 23 -10 2 7 17 12 34 12 26 0 29 -3 22 -22 -10 -32 -24 -39 -63 -34 -44 7
-65 27 -56 55 8 27 16 26 40 -1z m124 -172 c22 -20 28 -69 11 -96 -7 -11 -2
-17 23 -25 29 -10 32 -14 30 -48 -2 -31 1 -37 17 -37 17 0 20 -7 20 -50 0 -43
-3 -50 -20 -50 -11 0 -20 6 -21 13 0 10 -2 10 -6 0 -2 -7 -13 -13 -24 -13 -10
0 -19 6 -20 13 0 10 -2 10 -6 0 -10 -27 -33 -13 -33 20 0 23 -8 40 -24 55 -21
18 -24 26 -16 51 4 16 6 32 2 35 -14 15 -43 3 -56 -23 -18 -34 -38 -43 -74
-35 -36 9 -52 23 -52 45 0 24 -51 27 -70 4 -16 -19 -57 -19 -94 0 -15 8 -54
15 -86 15 -64 0 -95 18 -105 60 -4 18 0 34 15 52 25 32 30 33 341 33 209 0
229 -1 248 -19z m-519 -221 c0 -8 -8 -15 -17 -15 -15 0 -16 -2 -3 -10 11 -7
18 -3 28 15 15 30 75 36 90 8 9 -16 11 -16 27 0 21 22 75 23 75 2 0 -8 -9 -15
-19 -15 -11 0 -23 -5 -26 -10 -9 -15 14 -40 31 -33 8 3 14 -1 14 -11 0 -22
-66 -22 -78 0 -8 14 -10 14 -21 0 -15 -18 -72 -21 -88 -5 -8 8 -13 8 -17 0
-11 -17 -76 -14 -76 4 0 8 8 15 18 15 16 1 16 1 0 11 -18 10 -24 40 -11 52 3
4 21 7 40 7 23 0 33 -5 33 -15z m251 -32 l1 -48 16 48 c13 38 20 47 39 47 23
0 34 -17 49 -74 5 -22 3 -22 -70 -24 l-76 -1 0 49 c0 43 3 50 20 50 17 0 20
-7 21 -47z m159 7 c0 -29 4 -40 15 -40 8 0 15 -4 15 -10 0 -5 -16 -10 -35 -10
l-35 0 0 50 c0 43 3 50 20 50 17 0 20 -7 20 -40z m290 10 c0 -20 -5 -30 -15
-30 -8 0 -15 -4 -15 -10 0 -5 7 -10 15 -10 8 0 15 -4 15 -10 0 -5 -16 -10 -35
-10 l-35 0 0 50 0 50 35 0 c32 0 35 -2 35 -30z m98 18 c7 -7 12 -24 12 -38 0
-36 -17 -50 -62 -50 l-38 0 0 50 0 50 38 0 c21 0 43 -5 50 -12z m63 -35 l1
-48 16 48 c13 38 20 47 39 47 23 0 34 -17 49 -74 5 -22 3 -22 -70 -24 l-76 -1
0 49 c0 43 3 50 20 50 17 0 20 -7 21 -47z m-774 -169 c-7 -18 -7 -31 1 -49 7
-14 12 -28 12 -30 0 -10 -37 -4 -48 7 -9 9 -12 9 -12 0 0 -9 -17 -12 -57 -10
l-58 3 -3 39 c-5 64 -2 66 92 65 l84 -2 -11 -23z m101 14 c9 -9 12 -9 12 0 0
7 14 12 35 12 24 0 35 -5 35 -15 0 -8 -8 -16 -17 -16 -17 -1 -17 -2 0 -6 9 -2
17 -8 17 -13 0 -5 -8 -14 -17 -19 -17 -10 -17 -10 0 -11 9 0 17 -7 17 -15 0
-10 -11 -15 -35 -15 -32 0 -35 2 -35 30 0 33 -7 31 -48 -12 -30 -33 -42 -22
-42 37 l0 55 33 0 c18 0 38 -5 45 -12z m282 2 c0 -5 -6 -13 -14 -17 -8 -4 -16
-24 -18 -43 -2 -24 -9 -36 -20 -38 -15 -3 -18 4 -18 37 0 28 -4 41 -14 41 -18
0 -27 -26 -20 -56 5 -20 2 -24 -15 -24 -13 0 -21 7 -22 18 -1 16 -2 16 -6 0
-2 -10 -13 -18 -24 -18 -16 0 -19 7 -19 54 l0 55 95 0 c52 0 95 -4 95 -9z"/>
<path d="M6873 1473 c9 -2 23 -2 30 0 6 3 -1 5 -18 5 -16 0 -22 -2 -12 -5z"/>
<path d="M6084 925 c-9 -23 3 -45 23 -44 17 1 17 2 1 6 -10 2 -18 11 -18 18 0
8 8 19 18 24 16 10 16 10 -1 11 -10 0 -20 -7 -23 -15z"/>
<path d="M6131 927 c-15 -19 -3 -49 18 -45 9 2 16 13 16 27 0 29 -17 37 -34
18z m29 -17 c0 -11 -4 -20 -10 -20 -5 0 -10 9 -10 20 0 11 5 20 10 20 6 0 10
-9 10 -20z"/>
<path d="M6181 908 c0 -28 2 -30 9 -13 7 17 9 17 9 3 1 -20 21 -25 21 -5 0 8
4 7 10 -3 7 -11 10 -7 10 18 0 17 -4 32 -10 32 -5 0 -10 -8 -10 -17 -1 -17 -1
-17 -14 0 -19 25 -26 21 -25 -15z"/>
<path d="M6252 910 c0 -19 2 -27 5 -17 2 9 2 25 0 35 -3 9 -5 1 -5 -18z"/>
<path d="M6270 908 c0 -26 3 -30 11 -18 8 11 12 12 16 3 9 -25 23 -13 22 20 0
26 -2 29 -9 12 -7 -18 -8 -19 -15 -2 -12 28 -25 20 -25 -15z"/>
<path d="M6334 925 c-9 -21 3 -45 21 -45 8 0 15 7 15 15 0 8 -5 15 -11 15 -5
0 -7 -4 -4 -10 3 -5 1 -10 -4 -10 -18 0 -13 28 7 39 16 10 16 10 -1 11 -10 0
-20 -7 -23 -15z"/>
<path d="M6405 930 c-4 -6 -2 -17 5 -24 8 -11 8 -15 -2 -19 -8 -4 -7 -6 5 -6
19 -1 23 24 6 35 -8 4 -7 9 2 15 10 6 10 9 2 9 -6 0 -15 -5 -18 -10z"/>
<path d="M6447 933 c-13 -12 -7 -44 8 -49 8 -4 22 -1 29 5 11 9 15 9 18 0 6
-19 38 -2 38 20 0 26 -17 36 -36 20 -11 -9 -18 -9 -26 -1 -14 14 -22 15 -31 5z
m23 -37 c-14 -14 -24 0 -16 21 6 15 8 15 16 3 6 -9 5 -19 0 -24z m60 14 c0
-11 -4 -20 -10 -20 -5 0 -10 9 -10 20 0 11 5 20 10 20 6 0 10 -9 10 -20z"/>
<path d="M6551 908 c0 -27 2 -30 9 -13 7 18 8 19 15 3 12 -29 25 -21 25 15 0
25 -3 29 -11 17 -8 -11 -12 -12 -16 -2 -9 24 -23 12 -22 -20z"/>
<path d="M6150 710 c0 -11 7 -20 15 -20 8 0 15 9 15 20 0 11 -7 20 -15 20 -8
0 -15 -9 -15 -20z"/>
<path d="M6860 710 c0 -11 5 -20 10 -20 6 0 10 9 10 20 0 11 -4 20 -10 20 -5
0 -10 -9 -10 -20z"/>
<path d="M6091 541 c-11 -7 -11 -9 0 -14 11 -4 10 -9 -5 -21 -19 -16 -19 -16
6 -16 32 0 42 13 33 40 -7 22 -13 24 -34 11z"/>
<path d="M5580 2179 c0 -5 5 -7 10 -4 6 3 10 8 10 11 0 2 -4 4 -10 4 -5 0 -10
-5 -10 -11z"/>
<path d="M3538 2158 c-16 -5 -28 -14 -28 -20 0 -6 -7 -7 -16 -4 -20 8 -64 -3
-64 -16 0 -5 25 -42 56 -81 43 -56 61 -71 78 -69 45 8 46 16 4 69 -43 56 -45
83 -6 83 15 0 40 -18 73 -56 44 -49 53 -55 78 -49 15 4 27 11 27 15 0 4 -26
35 -57 68 -62 65 -95 79 -145 60z"/>
<path d="M5715 2127 c10 -15 20 -25 23 -22 3 3 -5 16 -17 28 l-23 22 17 -28z"/>
<path d="M3080 2091 c-14 -4 -25 -11 -25 -16 0 -6 22 -43 49 -83 27 -41 46
-79 42 -87 -8 -21 -46 -19 -70 4 -17 15 -27 16 -54 9 -27 -7 -31 -11 -23 -27
6 -10 27 -26 47 -36 65 -31 174 0 182 52 2 10 -18 51 -44 89 -62 92 -74 103
-104 95z"/>
<path d="M3277 2090 c-41 -12 -57 -29 -57 -57 0 -21 4 -24 23 -19 12 3 28 6
35 6 6 0 12 6 12 14 0 20 16 29 40 21 30 -10 25 -19 -25 -43 -50 -24 -58 -49
-25 -82 28 -28 105 -28 122 -1 7 12 17 17 23 12 5 -4 25 -4 42 1 l33 8 -48 61
c-65 84 -102 101 -175 79z m111 -112 c4 -21 -27 -32 -45 -16 -13 10 -12 14 3
25 22 16 38 12 42 -9z"/>
<path d="M4669 1799 c-6 -12 -9 -31 -7 -44 4 -18 1 -21 -14 -17 -10 2 -18 13
-18 25 0 20 0 20 -15 1 -14 -18 -15 -18 -12 6 1 19 -3 25 -18 25 -11 0 -20 -4
-20 -10 -1 -5 -6 -20 -13 -31 -6 -12 -8 -24 -5 -28 3 -3 1 -6 -5 -6 -7 0 -12
5 -12 10 0 6 -7 10 -15 10 -7 0 -18 8 -24 17 -8 14 -12 15 -25 4 -9 -7 -16
-20 -16 -28 0 -9 -6 -13 -14 -10 -17 7 -51 -39 -36 -48 6 -3 10 -1 10 6 0 7 3
9 6 6 4 -4 -1 -17 -9 -31 -16 -24 -16 -25 14 -31 37 -8 47 -1 28 21 -12 15
-10 15 21 2 41 -17 119 -15 132 4 8 10 11 10 15 1 8 -21 23 -15 23 10 0 16 3
18 9 8 5 -7 13 -11 19 -7 5 3 12 -3 15 -14 3 -11 9 -20 14 -20 11 0 11 30 -1
48 -5 8 -3 11 6 10 8 -2 12 5 10 21 -2 21 0 22 15 10 11 -9 14 -10 9 -1 -4 6
-2 12 3 12 6 0 11 9 11 20 0 13 -7 20 -20 20 -13 0 -22 9 -26 25 -8 31 -20 32
-35 4z m-65 -89 c3 0 6 8 6 17 0 16 1 16 18 0 14 -15 15 -19 3 -26 -7 -5 -11
-13 -7 -19 3 -6 -7 -9 -24 -8 -17 0 -30 4 -30 8 0 3 -3 14 -7 24 -5 13 -3 15
7 9 10 -6 12 -4 7 11 -7 18 -6 18 7 2 7 -10 16 -18 20 -18z m-129 10 c3 -5 1
-10 -4 -10 -6 0 -11 5 -11 10 0 6 2 10 4 10 3 0 8 -4 11 -10z m195 -21 c0 -5
-4 -9 -8 -9 -5 0 -9 7 -9 15 0 8 4 12 9 9 4 -3 8 -9 8 -15z m-150 -3 c0 -8 -7
-16 -15 -20 -13 -4 -14 -2 -5 14 13 23 20 26 20 6z"/>
<path d="M4715 1810 c-4 -7 -1 -16 6 -21 17 -10 26 8 11 23 -6 6 -12 6 -17 -2z"/>
<path d="M4770 1756 c0 -8 5 -18 10 -21 6 -4 7 -11 4 -17 -4 -6 -9 -5 -15 3
-4 7 -11 10 -15 6 -4 -4 2 -16 14 -27 29 -27 28 -32 -5 -15 -27 14 -48 11 -38
-5 3 -5 1 -11 -4 -15 -13 -7 18 -72 38 -80 39 -15 79 53 49 83 -9 9 -9 12 0
12 7 0 12 7 12 15 0 8 -5 15 -11 15 -8 0 -7 6 2 17 8 9 9 14 3 10 -7 -4 -14 2
-17 13 -6 23 -27 27 -27 6z m13 -148 c9 -6 9 -8 -1 -8 -7 0 -15 7 -18 15 -4 8
-12 15 -19 15 -18 0 -24 22 -11 36 8 8 14 3 24 -19 7 -17 18 -35 25 -39z"/>
<path d="M4510 1756 c0 -2 7 -6 15 -10 8 -3 15 -1 15 4 0 6 -7 10 -15 10 -8 0
-15 -2 -15 -4z"/>
<path d="M3576 1678 c3 -4 9 -8 15 -8 5 0 9 4 9 8 0 5 -7 9 -15 9 -8 0 -12 -4
-9 -9z"/>
<path d="M3973 1627 c0 -8 6 -14 14 -14 9 0 10 4 2 14 -6 7 -12 13 -14 13 -1
0 -2 -6 -2 -13z"/>
<path d="M3305 1600 c3 -5 8 -10 11 -10 2 0 4 5 4 10 0 6 -5 10 -11 10 -5 0
-7 -4 -4 -10z"/>
<path d="M3221 1583 c-1 -17 16 -25 25 -12 4 7 3 9 -4 5 -5 -3 -13 0 -15 6 -4
9 -6 10 -6 1z"/>
<path d="M3910 1580 c0 -5 5 -10 11 -10 5 0 7 5 4 10 -3 6 -8 10 -11 10 -2 0
-4 -4 -4 -10z"/>
<path d="M3700 1539 c0 -6 -7 -9 -15 -5 -12 4 -13 2 -2 -14 6 -11 15 -20 20
-20 4 0 5 5 2 10 -3 6 1 10 10 10 10 0 13 -5 9 -12 -4 -7 -3 -8 4 -4 9 5 8 12
-1 26 -13 22 -27 26 -27 9z"/>
<path d="M4590 1522 c0 -7 5 -12 10 -12 6 0 10 -5 10 -11 0 -6 -10 -8 -22 -5
-13 3 -17 3 -10 0 18 -9 15 -42 -5 -46 -10 -2 2 -9 27 -15 44 -12 45 -12 21 6
-20 16 -22 21 -11 41 10 18 9 25 -4 38 -10 11 -16 12 -16 4z"/>
<path d="M3646 1504 c-3 -9 -6 -20 -6 -25 0 -13 28 -11 36 3 5 8 2 9 -10 5
-14 -6 -16 -3 -11 13 7 24 0 27 -9 4z"/>
<path d="M4761 1474 c0 -12 8 -32 20 -45 l21 -24 -15 25 c-8 14 -17 35 -20 45
-4 18 -5 18 -6 -1z"/>
<path d="M4087 1474 c-14 -14 6 -34 29 -28 14 4 24 2 24 -4 0 -6 -8 -13 -17
-15 -13 -3 -12 -5 5 -6 32 -1 25 33 -7 37 -19 3 -21 6 -10 13 12 7 11 9 -2 9
-9 0 -18 -3 -22 -6z"/>
<path d="M4477 1464 c-11 -12 4 -58 25 -77 12 -10 23 -15 27 -12 3 3 0 10 -7
14 -7 4 -14 17 -15 29 0 11 -6 20 -12 19 -5 -1 -9 6 -9 16 2 19 1 20 -9 11z"/>
<path d="M4033 1453 c-21 -8 -15 -31 13 -49 18 -12 28 -14 36 -6 21 21 -19 66
-49 55z m41 -45 c-3 -5 -14 -2 -25 8 -10 9 -16 21 -13 26 3 5 14 2 25 -8 10
-9 16 -21 13 -26z"/>
<path d="M3359 1431 c8 -5 11 -17 7 -32 -6 -21 -5 -22 4 -6 13 21 6 47 -12 47
-10 0 -10 -2 1 -9z"/>
<path d="M2850 933 c0 -412 2 -503 14 -512 9 -8 101 -11 315 -9 l302 3 -28 42
c-27 42 -27 42 -45 23 -12 -13 -32 -20 -53 -20 l-35 0 0 55 c0 55 0 55 31 55
l30 0 -25 43 c-14 23 -34 43 -46 45 -15 3 -20 11 -20 37 0 20 -6 35 -15 39
-12 4 -15 -3 -15 -34 0 -33 -3 -40 -19 -40 -11 0 -27 10 -35 22 l-16 22 0 -22
c0 -15 -6 -22 -20 -22 -17 0 -20 7 -20 50 0 55 16 65 52 33 17 -15 18 -15 18
0 0 10 8 17 20 17 25 0 25 3 -2 45 l-23 35 -117 0 c-114 0 -117 1 -137 26 -27
34 -26 57 2 89 19 23 30 26 82 26 32 0 63 2 67 5 4 3 -6 26 -21 52 -54 90
-234 387 -237 391 -2 2 -4 -221 -4 -496z m180 -188 c0 -8 -9 -15 -20 -15 -13
0 -20 -7 -20 -20 0 -13 7 -20 20 -20 11 0 20 -7 20 -15 0 -10 -11 -15 -35 -15
-29 0 -37 5 -46 26 -14 38 11 74 51 74 20 0 30 -5 30 -15z m98 3 c7 -7 12 -24
12 -38 0 -14 -5 -31 -12 -38 -14 -14 -57 -16 -77 -3 -17 11 -18 56 -1 76 15
18 61 20 78 3z m-108 -193 c0 -8 -8 -15 -17 -15 -15 0 -14 -2 3 -14 17 -13 20
-12 27 7 11 30 24 36 79 35 40 0 48 -3 48 -19 0 -10 7 -19 15 -19 8 0 15 9 15
20 0 13 7 20 20 20 18 0 20 -7 20 -55 0 -48 -2 -55 -20 -55 -13 0 -20 7 -20
20 0 11 -7 20 -15 20 -8 0 -15 -8 -15 -18 0 -15 -9 -19 -50 -20 -31 0 -55 4
-64 13 -12 12 -16 12 -26 0 -7 -8 -25 -15 -41 -15 -23 0 -29 5 -29 21 0 16 4
19 17 15 16 -6 16 -6 0 12 -18 19 -22 44 -10 55 13 14 63 7 63 -8z m290 0 c0
-8 -8 -16 -17 -16 -17 -1 -17 -2 0 -6 9 -2 17 -8 17 -13 0 -5 -8 -14 -17 -19
-17 -10 -17 -10 0 -11 9 0 17 -7 17 -15 0 -10 -11 -15 -35 -15 l-35 0 0 55 0
55 35 0 c24 0 35 -5 35 -15z"/>
<path d="M3080 710 c0 -11 5 -20 10 -20 6 0 10 9 10 20 0 11 -4 20 -10 20 -5
0 -10 -9 -10 -20z"/>
<path d="M3074 525 c-8 -20 3 -34 26 -32 28 2 28 47 0 47 -11 0 -23 -7 -26
-15z"/>
<path d="M5160 1422 c-23 -7 -60 -44 -60 -59 0 -17 81 -18 98 -1 28 28 0 73
-38 60z"/>
<path d="M3830 1352 c0 -25 4 -29 30 -29 36 0 38 12 8 38 -31 25 -38 24 -38
-9z m25 -2 c3 -5 1 -10 -4 -10 -6 0 -11 5 -11 10 0 6 2 10 4 10 3 0 8 -4 11
-10z"/>
<path d="M3750 1332 c0 -23 19 -42 42 -42 24 0 34 26 18 45 -18 22 -60 19 -60
-3z m38 -4 c14 -14 16 -28 2 -28 -5 0 -14 9 -20 20 -12 22 -1 27 18 8z"/>
<path d="M4225 1279 c-4 -6 -4 -13 0 -17 3 -3 10 0 14 7 5 7 14 10 20 7 6 -4
11 -2 11 3 0 14 -37 14 -45 0z"/>
<path d="M3524 1259 c-4 -7 1 -10 12 -7 11 2 27 -3 37 -12 17 -14 17 -15 -5
-22 -22 -6 -21 -6 4 -7 35 -1 40 9 18 37 -19 23 -54 29 -66 11z"/>
<path d="M4187 1264 c-10 -11 -9 -26 2 -19 5 3 17 -5 25 -17 9 -12 18 -19 21
-16 3 3 -4 18 -17 33 -13 14 -27 23 -31 19z"/>
<path d="M4262 1240 c0 -14 2 -19 5 -12 2 6 2 18 0 25 -3 6 -5 1 -5 -13z"/>
<path d="M3463 1235 c-6 -17 23 -55 41 -55 6 0 17 4 25 9 12 8 12 13 -3 35
-18 29 -53 35 -63 11z m46 -19 c8 -9 8 -16 2 -20 -6 -4 -15 3 -21 14 -12 23 2
27 19 6z"/>
<path d="M3955 1170 c-3 -5 0 -10 7 -10 7 0 19 -9 26 -20 7 -11 17 -20 23 -20
6 0 1 14 -11 30 -22 31 -35 37 -45 20z"/>
<path d="M4820 1156 c0 -9 5 -16 10 -16 6 0 10 4 10 9 0 6 -4 13 -10 16 -5 3
-10 -1 -10 -9z"/>
<path d="M3915 1150 c-3 -5 0 -10 7 -10 7 0 19 -9 26 -20 7 -11 17 -20 23 -20
6 0 1 14 -11 30 -22 31 -35 37 -45 20z"/>
<path d="M4705 1141 c-3 -9 0 -20 8 -26 7 -5 19 -19 26 -30 11 -18 11 -18 5 5
l-7 25 24 -20 23 -20 -21 28 c-12 16 -19 34 -17 42 4 9 -1 13 -15 12 -11 -1
-23 -8 -26 -16z"/>
<path d="M4783 1143 c-15 -5 -17 -23 -4 -23 5 0 11 7 15 15 3 8 4 15 3 14 -1
0 -8 -3 -14 -6z"/>
<path d="M4390 1125 c0 -17 2 -18 24 -9 18 7 12 24 -10 24 -8 0 -14 -7 -14
-15z"/>
<path d="M4560 1120 c0 -5 4 -10 9 -10 6 0 13 5 16 10 3 6 -1 10 -9 10 -9 0
-16 -4 -16 -10z"/>
<path d="M4795 1100 c3 -5 8 -10 11 -10 2 0 4 5 4 10 0 6 -5 10 -11 10 -5 0
-7 -4 -4 -10z"/>
<path d="M4668 1073 c-6 -24 8 -43 32 -43 10 0 11 3 3 8 -7 4 -16 18 -21 32
-8 23 -9 23 -14 3z"/>
<path d="M4692 1073 c2 -10 14 -19 27 -21 27 -4 21 12 -10 29 -18 9 -20 8 -17
-8z"/>
<path d="M4587 1068 c-6 -19 11 -48 29 -48 22 0 42 22 36 42 -5 21 -22 23 -41
6 -11 -10 -13 -10 -7 0 4 6 3 12 -3 12 -5 0 -11 -6 -14 -12z"/>
<path d="M3663 1055 c-7 -20 24 -55 48 -55 27 0 33 18 15 45 -18 28 -54 33
-63 10z m51 -22 c4 -9 4 -18 1 -21 -7 -8 -35 19 -35 34 0 17 27 7 34 -13z"/>
<path d="M4818 1064 c0 -5 -2 -13 -3 -19 -2 -5 -3 -16 -4 -22 0 -7 -10 -13
-22 -13 -11 0 -17 4 -14 10 3 5 2 17 -3 26 -7 12 -9 9 -10 -14 0 -23 5 -31 21
-36 47 -12 55 -8 53 29 -3 33 -14 59 -18 39z"/>
<path d="M3615 1041 c-6 -11 44 -65 52 -57 5 5 -34 66 -42 66 -2 0 -6 -4 -10
-9z"/>
<path d="M4402 1029 c2 -7 12 -13 21 -15 23 -3 21 3 -4 17 -17 8 -20 8 -17 -2z"/>
<path d="M4500 1036 c0 -2 7 -7 16 -10 8 -3 12 -2 9 4 -6 10 -25 14 -25 6z"/>
<path d="M4114 969 c-8 -13 14 -56 31 -63 7 -2 21 1 31 9 17 12 17 14 -6 39
-27 28 -45 33 -56 15z m31 -9 c3 -5 -1 -10 -10 -10 -9 0 -13 5 -10 10 3 6 8
10 10 10 2 0 7 -4 10 -10z m25 -30 c0 -5 -7 -10 -16 -10 -8 0 -12 5 -9 10 3 6
10 10 16 10 5 0 9 -4 9 -10z"/>
<path d="M4061 943 c0 -11 59 -56 59 -46 -1 13 -37 53 -49 53 -6 0 -11 -3 -10
-7z"/>
<path d="M3000 925 c-10 -12 -10 -18 0 -30 7 -8 18 -15 24 -14 7 0 6 2 -1 6
-7 2 -13 13 -13 23 0 10 6 21 13 23 7 4 8 6 1 6 -6 1 -17 -6 -24 -14z"/>
<path d="M3044 925 c-9 -21 3 -45 21 -45 21 0 30 27 15 45 -16 19 -29 19 -36
0z m22 -32 c-11 -11 -19 6 -11 24 8 17 8 17 12 0 3 -10 2 -21 -1 -24z"/>
<path d="M3100 910 c0 -26 3 -31 10 -20 5 8 10 10 10 5 0 -6 9 -11 20 -12 15
-1 20 4 20 22 0 29 -18 43 -26 20 -6 -14 -8 -14 -20 2 -12 16 -13 15 -14 -17z"/>
<path d="M3172 910 c0 -19 2 -27 5 -17 2 9 2 25 0 35 -3 9 -5 1 -5 -18z"/>
<path d="M3191 908 c1 -18 3 -25 6 -15 5 18 5 18 19 0 12 -16 15 -16 24 -3 6
10 10 11 10 3 0 -7 9 -13 20 -13 11 0 20 7 20 15 0 8 -5 15 -11 15 -5 0 -7 -4
-4 -10 3 -5 1 -10 -4 -10 -6 0 -11 9 -11 20 0 11 5 20 12 20 6 0 8 3 5 6 -4 4
-12 3 -19 -2 -16 -11 -38 -11 -55 -1 -10 6 -13 -1 -12 -25z"/>
<path d="M3314 928 c-4 -6 1 -17 10 -24 13 -9 14 -13 4 -17 -9 -4 -9 -6 -1 -6
18 -1 27 20 13 29 -7 4 -9 13 -6 19 4 6 3 11 -3 11 -5 0 -13 -5 -17 -12z"/>
<path d="M3367 933 c-11 -10 -8 -41 4 -49 6 -3 16 -1 22 5 7 7 14 7 24 0 19
-17 45 -3 41 23 -4 27 -21 33 -41 14 -13 -14 -16 -14 -21 -1 -6 16 -18 19 -29
8z m23 -23 c0 -11 -4 -20 -10 -20 -5 0 -10 9 -10 20 0 11 5 20 10 20 6 0 10
-9 10 -20z m55 -10 c-5 -8 -11 -8 -17 -2 -6 6 -7 16 -3 22 5 8 11 8 17 2 6 -6
7 -16 3 -22z"/>
<path d="M3471 910 c0 -33 1 -34 10 -11 6 16 6 28 -1 35 -7 7 -10 -1 -9 -24z"/>
<path d="M3497 918 c-7 -25 0 -41 14 -33 12 8 12 42 0 49 -5 3 -11 -4 -14 -16z"/>
<path d="M4544 925 c-12 -29 4 -44 43 -42 28 1 39 7 41 21 2 10 0 22 -5 27
-14 14 -43 -1 -43 -22 0 -10 -7 -19 -15 -19 -18 0 -20 21 -3 38 9 9 9 12 0 12
-7 0 -15 -7 -18 -15z m71 -25 c-5 -8 -11 -8 -17 -2 -6 6 -7 16 -3 22 5 8 11 8
17 2 6 -6 7 -16 3 -22z"/>
<path d="M4640 910 c0 -26 3 -31 10 -20 5 8 10 10 10 5 0 -6 9 -11 20 -12 15
-1 20 4 20 22 0 29 -16 41 -24 18 -6 -14 -8 -14 -21 3 -13 18 -14 17 -15 -16z"/>
<path d="M4712 910 c0 -19 2 -27 5 -17 2 9 2 25 0 35 -3 9 -5 1 -5 -18z"/>
<path d="M4731 908 c0 -26 2 -29 8 -13 8 19 8 19 19 0 10 -17 13 -18 22 -5 6
10 10 11 10 3 0 -7 9 -13 20 -13 11 0 20 7 20 15 0 8 -5 15 -11 15 -5 0 -7 -4
-4 -10 3 -5 1 -10 -4 -10 -6 0 -11 9 -11 20 0 11 5 20 12 20 6 0 8 3 5 6 -4 4
-13 1 -22 -6 -12 -10 -15 -10 -16 1 0 8 -4 5 -9 -6 -7 -18 -8 -19 -15 -2 -12
28 -25 20 -24 -15z"/>
<path d="M4865 930 c-4 -6 -2 -17 5 -24 8 -11 8 -15 -2 -19 -8 -4 -7 -6 5 -6
19 -1 23 24 6 35 -8 4 -7 9 2 15 10 6 10 9 2 9 -6 0 -15 -5 -18 -10z"/>
<path d="M4904 925 c-4 -8 -4 -22 0 -30 6 -17 36 -20 36 -4 0 8 5 8 15 -1 20
-16 45 -6 45 19 0 26 -17 36 -36 20 -11 -9 -18 -9 -26 -1 -16 16 -27 15 -34
-3z m26 -15 c0 -11 -4 -20 -10 -20 -5 0 -10 9 -10 20 0 11 5 20 10 20 6 0 10
-9 10 -20z m60 -6 c0 -16 -16 -19 -25 -4 -8 13 4 32 16 25 5 -4 9 -13 9 -21z"/>
<path d="M5011 910 c0 -28 2 -31 9 -15 7 18 8 19 15 3 11 -28 25 -21 25 13 0
25 -3 29 -13 20 -10 -8 -17 -7 -25 1 -9 9 -12 4 -11 -22z"/>
<path d="M3824 845 c-19 -14 -18 -14 2 -9 17 5 22 0 28 -27 3 -18 9 -30 12
-27 7 8 -6 78 -15 78 -4 0 -16 -7 -27 -15z"/>
<path d="M3770 826 c0 -3 14 -20 30 -38 34 -37 40 -30 9 13 -18 25 -39 38 -39
25z"/>
<path d="M4943 818 c4 -10 2 -18 -3 -18 -6 0 -10 6 -10 13 0 9 -2 9 -8 -1 -5
-8 -22 -11 -46 -8 -20 3 -48 1 -61 -4 -15 -6 -25 -5 -27 1 -2 6 -17 4 -38 -6
-34 -15 -31 -16 80 -10 117 6 145 15 121 38 -11 10 -13 9 -8 -5z"/>
<path d="M4666 784 c-3 -9 2 -14 14 -14 26 0 34 17 11 23 -12 3 -22 -1 -25 -9z"/>
<path d="M4548 763 c6 -2 18 -2 25 0 6 3 1 5 -13 5 -14 0 -19 -2 -12 -5z"/>
<path d="M4227 733 c-13 -13 -7 -25 7 -14 19 16 29 -1 20 -34 -4 -15 -2 -25 5
-25 6 0 11 17 11 40 0 32 -4 40 -18 40 -10 0 -22 -3 -25 -7z"/>
<path d="M4390 709 c0 -5 5 -7 10 -4 6 3 10 8 10 11 0 2 -4 4 -10 4 -5 0 -10
-5 -10 -11z"/>
<path d="M4007 633 c-4 -3 -7 -19 -7 -34 0 -24 3 -27 35 -26 41 1 43 7 11 41
-25 28 -29 30 -39 19z"/>
<path d="M3927 603 c-13 -12 -7 -25 6 -14 20 16 28 2 21 -36 -7 -36 -1 -39 36
-18 l25 14 -24 1 c-17 0 -22 4 -17 16 11 28 -27 57 -47 37z"/>
<path d="M3360 515 c0 -15 4 -24 10 -20 6 3 10 12 10 20 0 8 -4 17 -10 20 -6
4 -10 -5 -10 -20z"/>
<path d="M4500 435 c0 -14 5 -25 10 -25 6 0 10 11 10 25 0 14 -4 25 -10 25 -5
0 -10 -11 -10 -25z"/>
<path d="M0 120 l0 -120 5790 0 5790 0 0 120 0 120 -5790 0 -5790 0 0 -120z"/>
</g>
</svg>
